<svg width="28" height="28" viewBox="0 0 28 28" fill="none" xmlns="http://www.w3.org/2000/svg">
<path d="M13.9688 16.5C12.1875 16.5 10.7188 15.0625 10.75 13.25C10.75 11.4688 12.1875 10 13.9688 10C15.75 10 17.2188 11.4688 17.2188 13.25C17.2188 15.0625 15.7812 16.5 13.9688 16.5ZM15.5312 17.5C18 17.5 20 19.375 20 21.6875C20 22.1562 19.5938 22.5 19.0938 22.5H8.875C8.375 22.5 8 22.1562 8 21.6875C8 19.375 9.96875 17.5 12.4375 17.5H15.5312ZM20 11.5C18.5938 11.5 17.5 10.4062 17.5 9C17.5 7.625 18.5938 6.5 20 6.5C21.375 6.5 22.5 7.625 22.5 9C22.5 10.4062 21.375 11.5 20 11.5ZM9.71875 13.25C9.71875 14.3125 10.125 15.2812 10.7812 16H4.53125C4.21875 16 4 15.75 4 15.4375C4 13.8125 5.21875 12.5 6.75 12.5H8.65625C9.0625 12.5 9.4375 12.5938 9.78125 12.7812C9.75 12.9375 9.71875 13.0938 9.71875 13.25ZM8 11.5C6.59375 11.5 5.5 10.4062 5.5 9C5.5 7.625 6.59375 6.5 8 6.5C9.375 6.5 10.5 7.625 10.5 9C10.5 10.4062 9.375 11.5 8 11.5ZM21.2188 12.5C22.75 12.5 24 13.8125 24 15.4375C24 15.75 23.75 16 23.4375 16H17.1875C17.8438 15.2812 18.2188 14.3125 18.2188 13.25C18.2188 13.0938 18.1875 12.9375 18.1875 12.7812C18.5312 12.625 18.9062 12.5 19.3125 12.5H21.2188Z" fill="#3D3D3D"/>
</svg>
